HIERARCHY
ROOT root
{
	OFFSET	0	13.1	24.9
	CHANNELS 6  Xposition Yposition Zposition Xrotation Yrotation Zrotation
	JOINT spine_1
	{
		OFFSET	0	9.99999	0
		CHANNELS 3  Xrotation Yrotation Zrotation
		JOINT spine_2
		{
			OFFSET	0	112	-10
			CHANNELS 3  Xrotation Yrotation Zrotation
			JOINT spine_3
			{
				OFFSET	0	206.5	19.3
				CHANNELS 3  Xrotation Yrotation Zrotation
				JOINT spine_4
				{
					OFFSET	0	110.4	14.6
					CHANNELS 3  Xrotation Yrotation Zrotation
					JOINT neck_1
					{
						OFFSET	0	71.8	-50.3
						CHANNELS 3  Xrotation Yrotation Zrotation
						JOINT neck_2
						{
							OFFSET	0	86.2	-25.8
							CHANNELS 3  Xrotation Yrotation Zrotation
							JOINT head_ee
							{
								OFFSET	0	179.8	-8.7
								CHANNELS 3  Xrotation Yrotation Zrotation
								End Site
								{
									OFFSET	1	0	0
								}
							}
						}
					}
					JOINT left_clavicle
					{
						OFFSET	-43.2	22.4	-70.8
						CHANNELS 3  Xrotation Yrotation Zrotation
						JOINT left_shoulder
						{
							OFFSET	-93.9	-5.79999	48.7
							CHANNELS 3  Xrotation Yrotation Zrotation
							JOINT left_elbow
							{
								OFFSET	-291.4	-30.8	15.2
								CHANNELS 3  Xrotation Yrotation Zrotation
								JOINT left_lowarm_twist
								{
									OFFSET	-110.7	-3.89999	13.6
									CHANNELS 3  Xrotation Yrotation Zrotation
									JOINT left_hand
									{
										OFFSET	-110.7	-3.89999	13.6
										CHANNELS 3  Xrotation Yrotation Zrotation
										JOINT left_ee
										{
											OFFSET	-80.8	-5.10001	12.1
											CHANNELS 3  Xrotation Yrotation Zrotation
											End Site
											{
												OFFSET	1	0	0
											}
										}
									}
								}
							}
						}
					}
					JOINT right_clavicle
					{
						OFFSET	43.2	22.4	-70.8
						CHANNELS 3  Xrotation Yrotation Zrotation
						JOINT right_shoulder
						{
							OFFSET	93.9	-5.79999	48.7
							CHANNELS 3  Xrotation Yrotation Zrotation
							JOINT right_elbow
							{
								OFFSET	291.4	-30.8	15.2
								CHANNELS 3  Xrotation Yrotation Zrotation
								JOINT right_lowarm_twist
								{
									OFFSET	110.7	-3.89999	13.6
									CHANNELS 3  Xrotation Yrotation Zrotation
									JOINT right_hand
									{
										OFFSET	110.7	-3.89999	13.6
										CHANNELS 3  Xrotation Yrotation Zrotation
										JOINT right_ee
										{
											OFFSET	80.8	-5.10001	12.1
											CHANNELS 3  Xrotation Yrotation Zrotation
											End Site
											{
												OFFSET	1	0	0
											}
										}
									}
								}
							}
						}
					}
				}
			}
		}
	}
	JOINT left_hip
	{
		OFFSET	-82.8	-127.5	0.300001
		CHANNELS 3  Xrotation Yrotation Zrotation
		JOINT left_knee
		{
			OFFSET	-28.2	-396.7	2.2
			CHANNELS 3  Xrotation Yrotation Zrotation
			JOINT left_ankle
			{
				OFFSET	-11.7	-411.3	35.4
				CHANNELS 3  Xrotation Yrotation Zrotation
				JOINT left_toes
				{
					OFFSET	0	-60	-88.6
					CHANNELS 3  Xrotation Yrotation Zrotation
					JOINT left_foot_ee
					{
						OFFSET	-22.5	-16.5	-42.2
						CHANNELS 3  Xrotation Yrotation Zrotation
						End Site
						{
							OFFSET	1	0	0
						}
					}
				}
			}
		}
	}
	JOINT right_hip
	{
		OFFSET	82.8	-127.5	0.300001
		CHANNELS 3  Xrotation Yrotation Zrotation
		JOINT right_knee
		{
			OFFSET	28.2	-396.7	2.2
			CHANNELS 3  Xrotation Yrotation Zrotation
			JOINT right_ankle
			{
				OFFSET	11.7	-411.3	35.4
				CHANNELS 3  Xrotation Yrotation Zrotation
				JOINT right_toes
				{
					OFFSET	0	-60	-88.6
					CHANNELS 3  Xrotation Yrotation Zrotation
					JOINT right_foot_ee
					{
						OFFSET	22.5	-16.5	-42.2
						CHANNELS 3  Xrotation Yrotation Zrotation
						End Site
						{
							OFFSET	1	0	0
						}
					}
				}
			}
		}
	}
}
MOTION
Frames: 13
Frame Time: 0.02
3210.5 698.253 -1457.01 -13.5078 55.4023 19.7421 4.40657 0.184923 -0.862442 4.40695 0.239425 -0.848928 4.40315 0.351459 -0.809002 4.4023 0.219287 -0.854351 -10.4853 17.7817 -4.07531 -11.0078 36.2446 0.922035 -0.0 0.0 -0.0 -2.56516 3.85359 -4.32147 -29.2662 -24.4567 86.8869 0.286477 -8.07721 0.0202264 36.9738 -0.20129 -4.63793 2.56105 -3.3159 16.0318 -0.0 0.0 -0.0 9.79576 26.7774 -18.323 -9.81448 26.6833 -60.5318 2.64482 52.6379 -1.30842 26.0413 -0.171649 3.29363 4.61456 -20.8028 -39.0573 0.0 0.0 0.0 29.9445 2.61219 -20.4188 -6.44978 0.211317 0.966774 -19.9323 11.435 2.99984 39.8567 -0.0 -0.0 -0.0 0.0 -0.0 2.72613 36.6977 -8.58592 -27.5802 -0.129117 -4.18984 15.669 -2.64581 2.18781 35.1201 -0.0 -0.0 0.0 0.0 0.0 
3186.62 696.67 -1457.26 -12.114 56.4456 18.1002 4.49685 0.258604 -0.792182 4.49714 0.308486 -0.774122 4.49277 0.408695 -0.726223 4.49215 0.288877 -0.781651 -11.4622 18.376 -1.15315 -12.179 35.5587 4.28084 -0.0 0.0 -0.0 -3.06768 5.06915 -5.04411 -28.9252 -26.3444 85.4688 0.328753 -9.24989 0.026595 37.5822 -0.229514 -4.71042 2.36993 -2.85378 14.8891 -0.0 0.0 -0.0 9.55891 27.4841 -17.7161 -10.6082 26.2588 -60.8669 2.56923 51.8341 -1.24866 28.4723 -0.111039 3.59823 4.25067 -19.0171 -35.856 0.0 0.0 0.0 30.0334 2.66722 -19.859 -13.0348 0.31359 1.9715 -13.3166 8.51733 1.99304 40.0697 -0.0 -0.0 -0.0 0.0 -0.0 -5.2841 38.0925 -4.44359 -23.9057 -0.228862 -3.63484 14.3657 -0.75673 2.02352 33.2915 -0.0 -0.0 0.0 0.0 0.0 
3158.39 701.318 -1442.38 -11.555 57.0045 15.577 4.47744 0.276588 -0.704121 4.47766 0.320832 -0.685095 4.47367 0.4093 -0.63621 4.47323 0.303689 -0.692864 -12.7375 18.6171 0.481708 -13.6407 35.1202 6.37073 -0.0 0.0 -0.0 -2.80531 4.98258 -4.57301 -27.4485 -25.9169 85.6727 0.351953 -9.89016 0.0304521 35.84 -0.150754 -4.50207 2.24949 -0.585529 14.9754 -0.0 0.0 -0.0 9.19588 27.9461 -16.8569 -11.8332 26.0767 -62.0883 2.4535 50.5453 -1.15847 24.6108 -0.201254 3.11329 4.06966 -21.379 -34.9546 0.0 0.0 0.0 30.4206 4.13849 -15.719 -16.1053 0.321682 2.44248 -12.9458 9.39771 1.93693 40.4854 -0.0 -0.0 -0.0 0.0 -0.0 -8.96405 42.3127 -1.74758 -24.6181 -0.21231 -3.74292 6.8135 -12.6989 0.98184 35.2494 -0.0 -0.0 0.0 0.0 0.0 
3137.73 704.067 -1438.65 -12.3981 57.8939 15.296 4.53492 0.192483 -0.653451 4.53513 0.233673 -0.639879 4.53238 0.316267 -0.603345 4.53193 0.217013 -0.645719 -15.9506 18.8468 3.59811 -17.223 34.0897 10.4858 -0.0 0.0 -0.0 -2.98107 5.48729 -4.80764 -26.0133 -26.327 84.8155 0.370644 -10.4042 0.033745 35.2557 -0.125764 -4.43168 2.01029 0.852502 13.8966 -0.0 0.0 -0.0 8.64502 27.8746 -15.6457 -12.3575 27.1133 -63.0743 2.45353 50.5457 -1.1585 22.8356 -0.231714 2.88859 3.86746 -22.1484 -33.6089 0.0 0.0 0.0 30.6192 5.14352 -13.5992 -17.8545 0.315006 2.71076 -7.95715 6.82941 1.18338 40.1294 -0.0 -0.0 -0.0 0.0 -0.0 -9.79905 45.1632 -1.24639 -23.7975 -0.231257 -3.61842 0.115944 -19.5298 0.0172872 32.5621 -0.0 -0.0 0.0 0.0 0.0 
3109.37 701.698 -1434.24 -11.8757 58.9107 14.1077 4.58123 0.090366 -0.669538 4.58147 0.132786 -0.662431 4.57976 0.218717 -0.639227 4.57921 0.115021 -0.665746 -17.4025 19.4719 4.80874 -18.9335 34.8083 12.4085 -0.0 0.0 -0.0 -2.97191 5.91878 -4.71234 -24.4499 -26.3346 83.5005 0.383383 -10.7536 0.0360837 34.7384 -0.104239 -4.36914 1.63907 1.98176 11.8051 -0.0 0.0 -0.0 8.71898 27.3267 -15.8705 -11.8031 27.1311 -63.6404 2.1074 46.2259 -0.899526 23.0384 -0.228587 2.91431 3.29234 -21.4661 -29.3916 0.0 0.0 0.0 30.0802 6.78074 -11.241 -24.3636 0.218378 3.70433 2.49454 9.56436 -0.362866 38.9739 -0.0 -0.0 -0.0 0.0 -0.0 -8.37761 47.6089 -3.62577 -28.8284 -0.0871558 -4.3768 -2.26209 -26.4929 -0.349847 33.4512 -0.0 -0.0 0.0 0.0 0.0 
3089.57 699.392 -1437.71 -11.084 59.3509 12.7715 4.3643 0.00633688 -0.510812 4.36445 0.0388279 -0.509374 4.364 0.107329 -0.49945 4.36366 0.0271042 -0.510132 -16.7504 19.7922 5.06891 -18.208 35.1954 12.5405 -0.0 0.0 -0.0 -2.92298 5.31468 -4.73156 -23.6036 -26.6341 82.1469 0.417908 -11.6963 0.0428048 34.655 -0.100824 -4.35905 1.48813 2.33039 10.9192 -0.0 0.0 -0.0 8.96547 26.8412 -16.4697 -11.4558 27.178 -64.8384 1.93287 43.7511 -0.776111 22.2832 -0.239772 2.81848 2.84388 -22.2622 -26.5268 0.0 0.0 0.0 29.6486 6.46959 -10.7498 -28.2797 0.106104 4.29473 5.44869 7.28217 -0.785961 40.0662 -0.0 -0.0 -0.0 0.0 -0.0 -7.43042 48.8344 -4.92719 -30.7564 -0.0143505 -4.66372 -8.95195 -29.5545 -1.42638 31.1314 -0.0 -0.0 0.0 0.0 0.0 
3072.78 702.417 -1439.84 -9.87362 60.165 12.4081 4.34694 -0.19947 -0.451313 4.34704 -0.170348 -0.46309 4.34835 -0.106059 -0.481894 4.34807 -0.180834 -0.459097 -17.9656 19.4821 5.26788 -19.5518 34.656 13.0358 -0.0 0.0 -0.0 -3.5965 4.0935 -6.21604 -21.485 -25.3741 81.6756 0.497173 -13.8359 0.0603229 35.0953 -0.11903 -4.41231 1.4835 6.40068 12.4585 -0.0 0.0 -0.0 8.86272 26.5407 -16.2744 -12.1748 26.9775 -65.771 1.80912 41.8623 -0.692013 25.9434 -0.173817 3.28131 3.24354 -21.3776 -29.0346 0.0 0.0 0.0 26.0755 4.93062 -10.5826 -24.2663 0.220651 3.68958 5.39143 8.03184 -0.777744 35.8775 -0.0 -0.0 -0.0 0.0 -0.0 -1.3158 43.7975 -8.80115 -38.3112 0.362837 -5.76041 -16.6536 -26.5211 -2.62505 32.6296 -0.0 -0.0 0.0 0.0 0.0 
3056.72 708.241 -1440.2 -9.46136 60.1707 12.4692 4.27157 -0.152411 -0.42066 4.27166 -0.125334 -0.429505 4.27254 -0.0654222 -0.44261 4.27229 -0.134502 -0.426723 -18.1692 19.5725 6.09834 -19.725 34.4211 13.8873 -0.0 0.0 -0.0 -3.54474 2.73614 -6.37648 -20.5882 -24.5722 80.6651 0.601708 -16.5978 0.0877686 36.1509 -0.164345 -4.53943 1.05442 6.62265 9.68543 -0.0 0.0 -0.0 8.76092 24.7138 -16.2366 -12.3152 26.5145 -66.2264 1.72306 40.4791 -0.635356 27.0449 -0.148196 3.41968 2.73861 -20.7087 -25.4507 0.0 0.0 0.0 22.438 4.67724 -9.95567 -19.903 0.296781 3.02452 8.48724 8.76431 -1.21267 34.7132 -0.0 -0.0 -0.0 0.0 -0.0 2.47965 41.849 -9.50445 -40.8012 0.518525 -6.11007 -24.7496 -26.4499 -3.91017 32.1915 -0.0 -0.0 0.0 0.0 0.0 
3034.19 713.495 -1441.27 -6.73319 61.4384 10.3433 3.99612 -0.278839 -0.312382 3.99614 -0.258396 -0.329492 3.99762 -0.209175 -0.362739 3.99753 -0.263837 -0.325152 -18.0264 19.2459 5.97294 -19.5 33.8373 13.5551 -0.0 0.0 -0.0 -3.54317 2.03285 -6.50573 -19.0933 -24.0431 79.7768 0.671134 -18.39 0.108641 36.6154 -0.185026 -4.5951 0.815524 7.73313 8.53906 -0.0 0.0 -0.0 8.52638 24.3694 -15.7508 -14.3767 25.9461 -66.4764 1.68581 39.862 -0.611325 29.0249 -0.0954618 3.6671 2.84119 -19.2906 -25.7807 0.0 0.0 0.0 16.6694 4.21891 -8.50748 -15.052 0.32175 2.28086 9.10102 11.3406 -1.29987 34.1668 -0.0 -0.0 -0.0 0.0 -0.0 6.55819 38.349 -12.2871 -51.1702 1.32561 -7.48408 -24.4244 -24.2918 -3.81531 32.236 -0.0 -0.0 0.0 0.0 0.0 
3014.04 715.787 -1437.44 -3.90453 60.7366 7.6598 3.68179 -0.0287805 -0.272225 3.68183 -0.0113999 -0.273504 3.68186 0.0289183 -0.27221 3.68176 -0.0144349 -0.273361 -19.1975 17.6829 3.96283 -20.7081 32.0063 11.4092 -0.0 0.0 -0.0 -3.01824 1.65225 -5.56447 -16.8309 -23.1325 77.3929 0.644273 -17.7008 0.10032 36.5318 -0.181267 -4.58508 0.644149 8.01373 7.5256 -0.0 0.0 -0.0 8.32205 24.4914 -15.2872 -15.9656 25.5725 -66.8164 1.6486 39.2343 -0.587633 30.6729 -0.0450685 3.87156 2.8497 -18.4556 -25.6201 0.0 0.0 0.0 12.1818 4.04983 -7.19219 -11.8657 0.303877 1.79238 9.97933 11.4516 -1.42131 35.2877 -0.0 -0.0 -0.0 0.0 -0.0 12.5796 35.2598 -14.9218 -58.2777 2.0169 -8.33296 -24.6023 -20.0814 -3.77554 29.2446 -0.0 -0.0 0.0 0.0 0.0 
2995.62 714.567 -1438.55 -1.64089 61.9071 5.72437 3.31095 -0.354282 -0.252183 3.31092 -0.337517 -0.274216 3.31256 -0.291484 -0.322722 3.31257 -0.338793 -0.272637 -18.6681 18.1079 4.59097 -20.1356 32.4484 11.9965 -0.0 0.0 -0.0 -3.43879 1.08212 -6.48017 -16.3217 -22.6212 76.3109 0.77634 -21.0355 0.144137 37.2848 -0.215624 -4.67503 0.49787 8.55636 6.78437 -0.0 0.0 -0.0 8.11597 24.2407 -14.8564 -16.7082 25.2255 -66.9934 1.60427 38.4715 -0.559821 31.9136 -0.00325491 4.02451 2.92382 -17.8215 -25.9585 0.0 0.0 0.0 9.41817 4.09935 -6.56908 -9.64148 0.275315 1.45231 10.7457 12.8241 -1.5292 34.0144 -0.0 -0.0 -0.0 0.0 -0.0 16.4028 32.8665 -16.2677 -63.3464 2.57196 -8.88348 -24.4325 -18.2039 -3.72677 29.5093 -0.0 -0.0 0.0 0.0 0.0 
2980.65 716.971 -1433.72 -0.999126 59.0528 5.25098 3.45693 0.127106 -0.424142 3.45702 0.153838 -0.415195 3.45586 0.214718 -0.387233 3.45568 0.150868 -0.416283 -19.3698 17.5451 2.49278 -20.9989 32.501 10.0965 -0.0 0.0 -0.0 -2.58291 0.637824 -4.89751 -14.4168 -20.7778 74.7788 0.723403 -19.7153 0.125705 37.0436 -0.20449 -4.64627 0.14331 4.60142 2.86939 -0.0 0.0 -0.0 7.93103 24.4376 -14.4297 -17.4551 25.0349 -67.3145 1.51321 36.8527 -0.504178 31.6901 -0.0110309 3.99702 2.53595 -18.3104 -23.4633 0.0 0.0 0.0 11.7246 7.04625 -7.06478 -19.1839 0.304456 2.91445 12.4931 12.4876 -1.76603 38.3477 -0.0 -0.0 -0.0 0.0 -0.0 15.6668 32.5879 -14.282 -62.6924 2.49763 -8.81522 -24.2484 -17.0317 -3.68677 26.9321 -0.0 -0.0 0.0 0.0 0.0 
2962.14 720.978 -1429.23 0.0258288 56.4398 4.17629 3.296 0.310103 -0.481157 3.29606 0.340091 -0.460449 3.29329 0.406816 -0.402711 3.29322 0.338111 -0.461905 -18.4884 17.1616 1.9249 -19.9508 31.9985 9.08439 -0.0 0.0 -0.0 -2.57203 3.03005 -4.47451 -13.093 -19.2244 72.7593 0.789271 -21.3545 0.148812 37.5089 -0.226076 -4.70171 0.00667281 6.04428 2.56725 -0.0 0.0 -0.0 7.71973 25.3349 -13.8757 -18.7912 24.7902 -67.5789 1.39159 34.5787 -0.433169 32.7409 0.0264641 4.12598 2.51736 -18.4218 -23.3701 0.0 0.0 0.0 8.54189 11.3285 -5.73192 -17.1169 0.31882 2.59764 14.2851 14.0064 -2.01115 36.8122 -0.0 -0.0 -0.0 0.0 -0.0 17.5665 30.3431 -14.213 -64.0059 2.64772 -8.95148 -22.6593 -11.6254 -3.41282 27.2178 -0.0 -0.0 0.0 0.0 0.0 
